<svg width="130" height="30" viewBox="0 0 167 42" fill="none" xmlns="http://www.w3.org/2000/svg">
<path d="M39.7176 22.8712C39.7176 21.6979 38.7657 20.7573 37.6197 20.7573H25.9298C22.043 20.7573 18.8916 23.9777 18.8916 27.9496H31.7432C31.2897 28.7887 30.7935 29.5425 30.2588 30.2156H30.2633C30.2633 30.2156 30.2746 30.2156 30.2927 30.2133C30.2814 30.2271 30.2701 30.2433 30.2588 30.2594C28.0864 32.9888 25.235 34.3581 21.7023 34.3581C18.6118 34.3581 15.9702 33.2424 13.7753 31.0086C12.6135 29.826 11.763 28.5098 11.2171 27.0644C10.3509 27.4632 9.40567 27.6799 8.42663 27.6799C6.7415 27.6799 5.15563 27.0506 3.9104 25.9118C4.48113 29.72 6.16175 33.058 8.95901 35.9164C12.4736 39.5079 16.7214 41.3037 21.7023 41.3037C26.6833 41.3037 30.9288 39.5079 34.4457 35.9164C34.5021 35.8588 34.5562 35.7965 34.6126 35.7389C35.4247 34.8883 36.1443 33.9985 36.7647 33.0649C38.7341 30.0934 39.7199 26.7048 39.7199 22.8943C39.7199 22.8873 39.7199 22.8804 39.7199 22.8735L39.7176 22.8712Z" fill="#C8102E"/>
<path d="M28.4948 10.0448C27.5406 11.0199 26.354 11.6677 25.0614 11.9351C27.5293 12.6866 29.5821 14.3233 31.2131 16.8544H38.7071C37.4257 13.1891 35.2556 10.2154 32.1967 7.93092C29.9385 6.24581 27.4413 5.18541 24.705 4.74512L29.1919 9.33019L28.4925 10.0448H28.4948Z" fill="#C8102E"/>
<path d="M10.4862 22.8412L4.95261 17.1865C4.84884 17.0805 4.73605 16.986 4.621 16.9007C3.48631 16.0431 1.87788 16.1353 0.849208 17.1865C-0.283232 18.3437 -0.283232 20.2225 0.849208 21.3797L3.74122 24.335L4.32323 24.9297C6.1031 26.7485 8.74922 27.1312 10.9013 26.0939C11.4901 25.8103 12.0428 25.4254 12.53 24.9297L10.4862 22.8412Z" fill="#C8102E"/>
<path d="M19.8412 11.6006L14.3911 6.03122L13.4323 5.05151C12.2999 3.89429 10.4614 3.89429 9.32894 5.05151C8.1965 6.20873 8.1965 8.08748 9.32894 9.24469L9.47332 9.39223L14.2873 14.3116L16.1935 16.2595C18.4607 18.5762 22.1332 18.5762 24.4003 16.2595L19.839 11.5983L19.8412 11.6006Z" fill="#C8102E"/>
<path d="M13.3015 15.3191L8.48749 10.3997L8.34312 10.2522C7.21068 9.09497 5.37215 9.09497 4.23971 10.2522C3.10727 11.4094 3.10727 13.2882 4.23971 14.4454L5.18717 15.4136L10.6283 20.9737L11.1043 21.4601C13.3714 23.7769 17.044 23.7769 19.3111 21.4601L13.2992 15.3167L13.3015 15.3191Z" fill="#C8102E"/>
<path d="M23.128 4.56088L20.2179 1.58715C19.0855 0.429934 17.247 0.429934 16.1145 1.58715C15.0814 2.64294 14.9934 4.29347 15.8438 5.4553C15.9273 5.56826 16.0153 5.6766 16.1145 5.78034L19.5908 9.33267C21.858 11.6494 25.5305 11.6494 27.7976 9.33267L23.128 4.56088Z" fill="#C8102E"/>
<path d="M58.9104 9.95703C54.9513 9.95703 51.6713 11.1488 49.0636 13.5232C47.7732 11.8727 45.7881 10.8123 43.5615 10.8123V40.9092C47.4484 40.9092 50.5998 37.6888 50.5998 33.7169V26.9926C50.5998 24.3577 51.2472 22.0456 52.5443 20.0585C53.8415 18.0691 55.962 17.0755 58.9104 17.0755C59.0863 17.0755 59.2623 17.0848 59.4382 17.1009V9.95703H58.9104Z" fill="#C8102E"/>
<path d="M93.9079 25.6004C93.9079 17.3823 87.7065 10.6487 79.8245 10.0079C79.4162 9.97791 79.0034 9.95947 78.5838 9.95947C78.2229 9.95947 77.8665 9.97561 77.5146 9.99636C69.5627 10.5634 63.2846 17.3292 63.2823 25.5981C63.2823 25.6142 63.2823 25.6326 63.2823 25.6488C63.3072 34.268 70.1537 41.2482 78.5951 41.2482C82.1706 41.2482 85.4574 39.9918 88.0629 37.8941C89.3285 39.7982 91.4648 41.0499 93.8876 41.0499V26.368C93.8988 26.1144 93.9056 25.8585 93.9056 25.6004H93.9079ZM78.5838 34.1366C76.2941 34.1366 74.3315 33.3021 72.6983 31.6331C71.0651 29.9641 70.2484 27.9517 70.2484 25.5957C70.2484 23.2398 71.0651 21.2297 72.6983 19.5699C74.3315 17.9102 76.2941 17.078 78.5838 17.078C80.8735 17.078 82.8587 17.9079 84.4919 19.5699C86.1252 21.232 86.9418 23.2398 86.9418 25.5957C86.9418 27.9517 86.1252 29.9641 84.4919 31.6331C82.8587 33.3021 80.8893 34.1366 78.5838 34.1366Z" fill="#C8102E"/>
<path d="M124.163 14.8327C124.071 14.7336 123.981 14.6345 123.886 14.5353C123.71 14.3555 123.532 14.1826 123.351 14.0144C120.633 11.4948 117.026 9.95719 113.067 9.95719H113.065C113.065 9.95719 113.058 9.95719 113.053 9.95719C110.01 9.95719 107.256 10.7848 104.79 12.4353V8.60633C104.79 4.63445 101.639 1.41406 97.7518 1.41406V25.5935C97.7518 25.5935 97.7518 25.5981 97.7518 25.6004C97.7518 25.6327 97.7518 25.6649 97.7518 25.6972C97.7744 29.7083 99.27 33.3597 101.72 36.1168C101.885 36.3012 102.054 36.4833 102.23 36.6631C102.336 36.7715 102.444 36.8729 102.55 36.9766C105.291 39.623 108.986 41.2505 113.056 41.2528C113.087 41.2528 113.119 41.2528 113.153 41.2528C116.794 41.232 120.132 39.9112 122.751 37.7235C123.137 37.3939 123.516 37.0412 123.884 36.6654C124.251 36.2897 124.597 35.9047 124.919 35.5082C127.06 32.8341 128.353 29.4201 128.373 25.6995C128.373 25.6672 128.373 25.6327 128.373 25.6004C128.373 21.4256 126.767 17.6382 124.159 14.8327H124.163ZM118.961 31.6331C117.328 33.3021 115.359 34.1366 113.053 34.1366C110.748 34.1366 108.801 33.3021 107.168 31.6331C105.535 29.9642 104.718 27.9517 104.718 25.5958C104.718 23.2398 105.535 21.2297 107.168 19.5699C108.801 17.9102 110.764 17.078 113.053 17.078C115.343 17.078 117.328 17.9079 118.961 19.5699C120.595 21.232 121.411 23.2398 121.411 25.5958C121.411 27.9517 120.595 29.9642 118.961 31.6331Z" fill="#C8102E"/>
<path d="M132.219 40.9093C136.106 40.9093 139.257 37.6889 139.257 33.717V4.90186H132.219V40.9093Z" fill="white"/>
<path d="M143.101 4.90186V12.0941H151.531V40.9116C155.418 40.9116 158.57 37.6912 158.57 33.7193V12.0941H167V4.90186H143.099H143.101Z" fill="white"/>
</svg>
